<svg data-v-fde0c5aa="" xmlns="http://www.w3.org/2000/svg" viewBox="0 0 300 300" class="iconLeft"><!----><defs data-v-fde0c5aa=""><linearGradient data-v-fde0c5aa="" gradientTransform="rotate(25)" id="555aa100-b2a3-42a8-835c-4ad68073f4af" x1="0%" y1="0%" x2="100%" y2="0%"><stop data-v-fde0c5aa="" offset="0%" stop-color="#1A1439" stop-opacity="1"></stop><stop data-v-fde0c5aa="" offset="100%" stop-color="#CB9F98" stop-opacity="1"></stop></linearGradient></defs><rect data-v-fde0c5aa="" fill="url(#555aa100-b2a3-42a8-835c-4ad68073f4af)" x="0" y="0" width="300px" height="300px" class="logo-background-square"></rect><defs data-v-fde0c5aa=""><!----></defs><g data-v-fde0c5aa="" id="951de532-d6a0-40ab-acca-dd984641c202" fill="#ffffff" transform="matrix(1.7701018724185962,0,0,1.7701018724185962,73.68791202310237,140.46509898215416)"><path d="M8.01 0.56L8.01 0.56C7.35 0.29 6.65 0.15 5.94 0.15C2.41 0.15 0.66 2.81 0.67 5.47C0.69 8.09 2.45 10.71 5.94 10.71C6.65 10.71 7.35 10.57 8.01 10.30C8.57 10.08 8.22 9.21 7.64 9.45C7.10 9.66 6.54 9.79 5.94 9.79C3.07 9.79 1.60 7.64 1.58 5.45C1.58 2.98 3.37 1.08 5.89 1.08C6.50 1.08 7.08 1.19 7.64 1.43C8.22 1.65 8.57 0.80 8.01 0.56ZM7.36 7.50L7.36 7.50C6.89 7.77 6.37 7.88 5.88 7.87C4.68 7.83 3.60 6.99 3.60 5.45C3.60 3.26 5.74 2.46 7.36 3.36C7.90 3.67 8.34 2.84 7.80 2.56C5.53 1.29 2.67 2.56 2.67 5.45C2.67 7.52 4.19 8.78 5.89 8.81C6.54 8.82 7.20 8.67 7.80 8.32C8.34 8.02 7.90 7.22 7.36 7.50ZM11.77 0.81L11.77 0.81L11.77 4.56C11.77 4.82 11.98 5.03 12.24 5.03L15.05 5.03C15.30 5.03 15.51 4.82 15.51 4.56L15.51 0.81C15.51 0.56 15.30 0.35 15.05 0.35C14.78 0.35 14.57 0.56 14.57 0.81L14.57 4.09L12.71 4.09L12.71 0.81C12.71 0.56 12.50 0.35 12.24 0.35C11.98 0.35 11.77 0.56 11.77 0.81ZM15.51 10.18L15.51 10.18L15.51 6.43C15.51 6.17 15.30 5.96 15.05 5.96L12.24 5.96C11.98 5.96 11.77 6.17 11.77 6.43L11.77 10.18C11.77 10.43 11.98 10.64 12.24 10.64C12.50 10.64 12.71 10.43 12.71 10.18L12.71 6.90L14.57 6.90L14.57 10.18C14.57 10.43 14.78 10.64 15.05 10.64C15.30 10.64 15.51 10.43 15.51 10.18ZM10.84 10.18L10.84 10.18L10.84 0.81C10.84 0.56 10.63 0.35 10.37 0.35C10.11 0.35 9.90 0.56 9.90 0.81L9.90 10.18C9.90 10.43 10.11 10.64 10.37 10.64C10.63 10.64 10.84 10.43 10.84 10.18ZM16.45 0.81L16.45 0.81L16.45 10.18C16.45 10.43 16.66 10.64 16.91 10.64C17.18 10.64 17.39 10.43 17.39 10.18L17.39 0.81C17.39 0.56 17.18 0.35 16.91 0.35C16.66 0.35 16.45 0.56 16.45 0.81ZM22.34 7.84L22.34 7.84L23.70 7.84C23.97 7.84 24.19 7.63 24.19 7.36C24.19 7.29 24.18 7.24 24.15 7.18L23.46 5.50C23.37 5.28 23.10 5.17 22.85 5.26C22.62 5.35 22.51 5.63 22.60 5.87L23.02 6.90L22.34 6.90C22.09 6.90 21.88 7.10 21.88 7.36C21.88 7.63 22.09 7.84 22.34 7.84ZM21.66 10.26L21.66 10.26L21.90 9.72L24.16 9.72L24.39 10.26C24.49 10.51 24.77 10.61 25.00 10.53C25.24 10.42 25.34 10.15 25.26 9.91L24.92 9.10C24.86 8.92 24.68 8.76 24.47 8.76L21.57 8.76L21.57 8.76C21.41 8.76 21.22 8.89 21.14 9.06L20.80 9.91C20.71 10.15 20.82 10.42 21.06 10.53C21.31 10.61 21.57 10.50 21.66 10.26ZM19.66 10.26L19.66 10.26L23.03 1.76L26.40 10.26C26.50 10.50 26.78 10.61 27.02 10.53C27.26 10.42 27.37 10.15 27.27 9.91L23.46 0.36C23.42 0.25 23.34 0.14 23.20 0.10C22.97 0 22.69 0.11 22.60 0.36L18.77 9.91C18.69 10.15 18.82 10.42 19.04 10.53C19.28 10.61 19.54 10.50 19.66 10.26ZM34.23 2.23L34.23 2.23L31.88 2.23C31.63 2.23 31.42 2.44 31.42 2.70L31.42 10.16C31.42 10.43 31.63 10.64 31.88 10.64C32.14 10.64 32.35 10.43 32.35 10.16L32.35 3.15L34.23 3.15C34.48 3.15 34.68 2.95 34.68 2.70C34.68 2.44 34.48 2.23 34.23 2.23ZM27.69 1.29L27.69 1.29L34.23 1.29C34.48 1.29 34.68 1.08 34.68 0.83C34.68 0.56 34.48 0.36 34.23 0.36L27.69 0.36C27.43 0.36 27.22 0.56 27.22 0.83C27.22 1.08 27.43 1.29 27.69 1.29ZM27.69 3.15L27.69 3.15L29.54 3.15L29.54 10.16C29.54 10.43 29.76 10.64 30.02 10.64C30.28 10.64 30.49 10.43 30.49 10.16L30.49 2.70C30.49 2.44 30.28 2.23 30.02 2.23L27.69 2.23C27.43 2.23 27.22 2.44 27.22 2.70C27.22 2.95 27.43 3.15 27.69 3.15ZM47.05 0.56L47.05 0.56C46.40 0.29 45.70 0.15 44.98 0.15C41.45 0.15 39.70 2.81 39.72 5.47C39.73 8.09 41.50 10.71 44.98 10.71C45.70 10.71 46.40 10.57 47.05 10.30C47.61 10.08 47.26 9.21 46.69 9.45C46.14 9.66 45.58 9.79 44.98 9.79C42.11 9.79 40.64 7.64 40.63 5.45C40.63 2.98 42.42 1.08 44.94 1.08C45.54 1.08 46.13 1.19 46.69 1.43C47.26 1.65 47.61 0.80 47.05 0.56ZM46.41 7.50L46.41 7.50C45.93 7.77 45.42 7.88 44.93 7.87C43.72 7.83 42.64 6.99 42.64 5.45C42.64 3.26 44.79 2.46 46.41 3.36C46.94 3.67 47.39 2.84 46.84 2.56C44.58 1.29 41.72 2.56 41.72 5.45C41.72 7.52 43.23 8.78 44.94 8.81C45.58 8.82 46.24 8.67 46.84 8.32C47.39 8.02 46.94 7.22 46.41 7.50ZM52.95 5.03L52.95 5.03C53.72 5.03 54.36 4.42 54.36 3.64C54.36 2.93 53.80 2.21 52.95 2.21L51.28 2.21C50.67 2.21 50.67 3.15 51.28 3.15L52.95 3.15C53.21 3.15 53.44 3.35 53.44 3.63C53.44 4.17 52.92 4.10 52.49 4.10C51.73 4.10 51.76 4.98 52.49 5.03C52.64 5.04 52.82 5.03 52.95 5.03ZM53.82 9.90L53.82 9.90L51.67 6.83C51.41 6.48 50.82 6.62 50.82 7.13L50.82 10.18C50.82 10.79 51.76 10.79 51.76 10.18L51.76 8.58L53.05 10.44C53.41 10.95 54.17 10.40 53.82 9.90ZM49.88 10.18L49.88 10.18L49.88 1.29L53.10 1.29C53.73 1.29 54.31 1.54 54.73 1.96C56.17 3.42 55.16 5.96 53.10 5.96C52.75 5.96 52.47 6.37 52.75 6.73L55.34 10.44C55.68 10.95 56.45 10.40 56.10 9.90L53.93 6.79C54.49 6.65 54.99 6.34 55.40 5.94C57.41 3.86 55.97 0.35 53.10 0.35L49.42 0.35C49.17 0.35 48.94 0.56 48.94 0.81L48.94 10.18C48.94 10.79 49.88 10.79 49.88 10.18ZM60.38 7.84L60.38 7.84L61.74 7.84C62.01 7.84 62.23 7.63 62.23 7.36C62.23 7.29 62.22 7.24 62.19 7.18L61.50 5.50C61.40 5.28 61.14 5.17 60.89 5.26C60.66 5.35 60.55 5.63 60.63 5.87L61.05 6.90L60.38 6.90C60.13 6.90 59.92 7.10 59.92 7.36C59.92 7.63 60.13 7.84 60.38 7.84ZM59.70 10.26L59.70 10.26L59.93 9.72L62.20 9.72L62.43 10.26C62.52 10.51 62.80 10.61 63.04 10.53C63.28 10.42 63.38 10.15 63.29 9.91L62.96 9.10C62.90 8.92 62.72 8.76 62.51 8.76L59.61 8.76L59.61 8.76C59.44 8.76 59.26 8.89 59.18 9.06L58.84 9.91C58.74 10.15 58.86 10.42 59.09 10.53C59.35 10.61 59.61 10.50 59.70 10.26ZM57.69 10.26L57.69 10.26L61.07 1.76L64.44 10.26C64.54 10.50 64.82 10.61 65.06 10.53C65.30 10.42 65.41 10.15 65.31 9.91L61.50 0.36C61.46 0.25 61.38 0.14 61.24 0.10C61.01 0 60.73 0.11 60.63 0.36L56.81 9.91C56.73 10.15 56.85 10.42 57.08 10.53C57.32 10.61 57.58 10.50 57.69 10.26ZM72.06 2.23L72.06 2.23L69.09 2.23C68.82 2.23 68.61 2.42 68.61 2.69L68.61 4.56C68.61 4.82 68.82 5.03 69.09 5.03L71.19 5.03C71.44 5.03 71.65 4.82 71.65 4.56C71.65 4.30 71.44 4.09 71.19 4.09L69.55 4.09L69.55 3.15L72.06 3.15C72.32 3.15 72.53 2.94 72.53 2.69C72.53 2.42 72.32 2.23 72.06 2.23ZM71.19 5.96L71.19 5.96L69.09 5.96C68.82 5.96 68.61 6.17 68.61 6.43L68.61 10.18C68.61 10.43 68.82 10.64 69.09 10.64C69.34 10.64 69.55 10.43 69.55 10.18L69.55 6.90L71.19 6.90C71.44 6.90 71.65 6.69 71.65 6.43C71.65 6.17 71.44 5.96 71.19 5.96ZM67.68 10.18L67.68 10.18L67.68 1.29L72.06 1.29C72.32 1.29 72.53 1.08 72.53 0.81C72.53 0.56 72.32 0.35 72.06 0.35L67.21 0.35C66.95 0.35 66.75 0.56 66.75 0.81L66.75 10.18C66.75 10.43 66.95 10.64 67.21 10.64C67.47 10.64 67.68 10.43 67.68 10.18ZM80.36 2.23L80.36 2.23L78.01 2.23C77.76 2.23 77.55 2.44 77.55 2.70L77.55 10.16C77.55 10.43 77.76 10.64 78.01 10.64C78.27 10.64 78.48 10.43 78.48 10.16L78.48 3.15L80.36 3.15C80.61 3.15 80.81 2.95 80.81 2.70C80.81 2.44 80.61 2.23 80.36 2.23ZM73.82 1.29L73.82 1.29L80.36 1.29C80.61 1.29 80.81 1.08 80.81 0.83C80.81 0.56 80.61 0.36 80.36 0.36L73.82 0.36C73.56 0.36 73.35 0.56 73.35 0.83C73.35 1.08 73.56 1.29 73.82 1.29ZM73.82 3.15L73.82 3.15L75.67 3.15L75.67 10.16C75.67 10.43 75.89 10.64 76.15 10.64C76.41 10.64 76.62 10.43 76.62 10.16L76.62 2.70C76.62 2.44 76.41 2.23 76.15 2.23L73.82 2.23C73.56 2.23 73.35 2.44 73.35 2.70C73.35 2.95 73.56 3.15 73.82 3.15ZM87.63 2.23L87.63 2.23L84.66 2.23C84.39 2.23 84.18 2.42 84.18 2.69L84.18 4.56C84.18 4.82 84.39 5.03 84.66 5.03L86.76 5.03C87.02 5.03 87.23 4.82 87.23 4.56C87.23 4.30 87.02 4.09 86.76 4.09L85.12 4.09L85.12 3.15L87.63 3.15C87.89 3.15 88.10 2.94 88.10 2.69C88.10 2.42 87.89 2.23 87.63 2.23ZM86.76 5.96L86.76 5.96L84.66 5.96C84.39 5.96 84.18 6.17 84.18 6.43L84.18 8.30C84.18 8.55 84.39 8.76 84.66 8.76L87.63 8.76C87.89 8.76 88.10 8.55 88.10 8.30C88.10 8.04 87.89 7.83 87.63 7.83L85.12 7.83L85.12 6.90L86.76 6.90C87.02 6.90 87.23 6.69 87.23 6.43C87.23 6.17 87.02 5.96 86.76 5.96ZM87.63 9.70L87.63 9.70L83.26 9.70L83.26 1.29L87.63 1.29C87.89 1.29 88.10 1.08 88.10 0.81C88.10 0.56 87.89 0.35 87.63 0.35L82.78 0.35C82.53 0.35 82.32 0.56 82.32 0.81L82.32 10.18C82.32 10.43 82.53 10.64 82.78 10.64L87.63 10.64C87.89 10.64 88.10 10.43 88.10 10.18C88.10 9.91 87.89 9.70 87.63 9.70ZM93.98 5.03L93.98 5.03C94.75 5.03 95.40 4.42 95.40 3.64C95.40 2.93 94.84 2.21 93.98 2.21L92.32 2.21C91.70 2.21 91.70 3.15 92.32 3.15L93.98 3.15C94.25 3.15 94.47 3.35 94.47 3.63C94.47 4.17 93.95 4.10 93.52 4.10C92.76 4.10 92.79 4.98 93.52 5.03C93.67 5.04 93.86 5.03 93.98 5.03ZM94.85 9.90L94.85 9.90L92.71 6.83C92.44 6.48 91.85 6.62 91.85 7.13L91.85 10.18C91.85 10.79 92.79 10.79 92.79 10.18L92.79 8.58L94.08 10.44C94.44 10.95 95.20 10.40 94.85 9.90ZM90.92 10.18L90.92 10.18L90.92 1.29L94.14 1.29C94.77 1.29 95.34 1.54 95.76 1.96C97.20 3.42 96.19 5.96 94.14 5.96C93.79 5.96 93.51 6.37 93.79 6.73L96.38 10.44C96.71 10.95 97.48 10.40 97.13 9.90L94.96 6.79C95.52 6.65 96.03 6.34 96.43 5.94C98.45 3.86 97.01 0.35 94.14 0.35L90.45 0.35C90.20 0.35 89.98 0.56 89.98 0.81L89.98 10.18C89.98 10.79 90.92 10.79 90.92 10.18ZM98.78 1.27L98.78 1.27L103.52 1.27L100.73 8.12C100.58 8.46 100.77 8.76 101.11 8.76L104.79 8.76C105.41 8.76 105.41 7.83 104.79 7.83L101.85 7.83L104.64 1.01C104.78 0.67 104.54 0.35 104.20 0.35L98.78 0.35C98.17 0.35 98.17 1.27 98.78 1.27ZM104.79 9.69L104.79 9.69L99.06 9.69L101.84 2.91C101.99 2.55 101.78 2.21 101.39 2.21L98.78 2.21C98.17 2.21 98.17 3.15 98.78 3.15L100.73 3.15L97.94 9.97C97.80 10.30 98.04 10.64 98.38 10.64L104.79 10.64C105.41 10.64 105.41 9.69 104.79 9.69Z"></path></g><defs data-v-fde0c5aa=""><!----></defs><g data-v-fde0c5aa="" id="2ed0b65f-ab42-4c62-93d8-a7ef8be62f1b" stroke="none" fill="#ffffff" transform="matrix(0.289007261902856,0,0,0.289007261902856,36.24781877604393,135.5766585722966)"><g clip-rule="evenodd"><path d="M12.983 10.59l17.018 88.223-5.872-59.049 29.021-1.892-.054-9.883L64.549 1 53.622 18.977z"></path><path d="M59.389 54.548l5.16-53.541-8.74 39.716-19.612 1.045 1.57 20.462-7.766 36.583 12.057-39.899z"></path><path d="M62.8 67.182l.549-10.453-15.979 3.755-.032 11.797-17.337 26.532 21.68-27.616zM65.711 62.394l14.841-4.731 1.509-12.532-15.899 2.095zM72.07 44.502l10.988-1.417 1.581-10.278-8.079-.373L64.549 1l8.43 30.967z"></path><path d="M87.413 31.294l1.256-9.506-9.544-2.694L64.549 1l14.483 22.437-.422 7z"></path></g></g><!----></svg>